# xmcd
#
# Track frame offsets: 
#        150
#        20502
#        35478
#        50567
#        65513
#        73362
#        91995
#        111475
#        128371
#        143982
#        161849
#        183243
#        204690
#        220008
#
# Disc length: 3169 seconds
#
# Revision: 2
# Processed by: cddbd v1.4PL0 Copyright (c) Steve Scherf et al.
# Submitted via: ExactAudioCopy v0.90b4
#
DISCID=d40c5f0e
DTITLE=Chuck E. Weiss - Old Souls And Wolf Tickets
DYEAR=2001
DGENRE=Blues
TTITLE0=Congo Square At Midnight
TTITLE1=Tony Did The Boogie Woogie
TTITLE2=It Don't Happen Overnight
TTITLE3=Sweetie-O
TTITLE4=Piggly Wiggly
TTITLE5=Two-Tone Car (An Auto-Body Experience)
TTITLE6=An Anthem For Old Souls
TTITLE7=Sneaky Jesus
TTITLE8=Down The Road A Piece
TTITLE9=No Hep Cats
TTITLE10=Jolie's Nightmare (Mr. House Dick)
TTITLE11=Blood Alley
TTITLE12=G-D Damn Liars
TTITLE13=Dixieland Funeral
EXTD=
EXTT0=
EXTT1=
EXTT2=
EXTT3=
EXTT4=
EXTT5=
EXTT6=
EXTT7=
EXTT8=
EXTT9=
EXTT10=
EXTT11=
EXTT12=
EXTT13=
PLAYORDER=
